<?xml version="1.0" encoding="UTF-8" standalone="no"?>
<svg
   xmlns:dc="http://purl.org/dc/elements/1.1/"
   xmlns:cc="http://creativecommons.org/ns#"
   xmlns:rdf="http://www.w3.org/1999/02/22-rdf-syntax-ns#"
   xmlns:svg="http://www.w3.org/2000/svg"
   xmlns="http://www.w3.org/2000/svg"
   viewBox="0 0 869.28003 529.12"
   height="529.12"
   width="869.28003"
   xml:space="preserve"
   id="svg2"
   version="1.1"><metadata
     id="metadata8"><rdf:RDF><cc:Work
         rdf:about=""><dc:format>image/svg+xml</dc:format><dc:type
           rdf:resource="http://purl.org/dc/dcmitype/StillImage" /></cc:Work></rdf:RDF></metadata><defs
     id="defs6"><clipPath
       id="clipPath18"
       clipPathUnits="userSpaceOnUse"><path
         style="clip-rule:evenodd"
         id="path16"
         d="M 0,9.1553e-5 H 651.96 V 396.84009 H 0 Z" /></clipPath><clipPath
       id="clipPath28"
       clipPathUnits="userSpaceOnUse"><path
         style="clip-rule:evenodd"
         id="path26"
         d="M 9.715e-6,0 H 651.96001 V 396.84 H 9.715e-6 Z" /></clipPath><clipPath
       id="clipPath40"
       clipPathUnits="userSpaceOnUse"><path
         style="clip-rule:evenodd"
         id="path38"
         d="M 9.715e-6,0 H 651.96001 V 396.84 H 9.715e-6 Z" /></clipPath><clipPath
       id="clipPath52"
       clipPathUnits="userSpaceOnUse"><path
         style="clip-rule:evenodd"
         id="path50"
         d="M 9.715e-6,0 H 651.96001 V 396.84 H 9.715e-6 Z" /></clipPath><clipPath
       id="clipPath68"
       clipPathUnits="userSpaceOnUse"><path
         style="clip-rule:evenodd"
         id="path66"
         d="M 9.715e-6,0 H 651.96001 V 396.84 H 9.715e-6 Z" /></clipPath><clipPath
       id="clipPath80"
       clipPathUnits="userSpaceOnUse"><path
         style="clip-rule:evenodd"
         id="path78"
         d="M 9.715e-6,0 H 651.96001 V 396.84 H 9.715e-6 Z" /></clipPath><clipPath
       id="clipPath96"
       clipPathUnits="userSpaceOnUse"><path
         style="clip-rule:evenodd"
         id="path94"
         d="M 9.715e-6,0 H 651.96001 V 396.84 H 9.715e-6 Z" /></clipPath><clipPath
       id="clipPath108"
       clipPathUnits="userSpaceOnUse"><path
         style="clip-rule:evenodd"
         id="path106"
         d="M 9.715e-6,0 H 651.96001 V 396.84 H 9.715e-6 Z" /></clipPath><clipPath
       id="clipPath120"
       clipPathUnits="userSpaceOnUse"><path
         style="clip-rule:evenodd"
         id="path118"
         d="M 9.715e-6,0 H 651.96001 V 396.84 H 9.715e-6 Z" /></clipPath><clipPath
       id="clipPath132"
       clipPathUnits="userSpaceOnUse"><path
         style="clip-rule:evenodd"
         id="path130"
         d="M 9.715e-6,0 H 651.96001 V 396.84 H 9.715e-6 Z" /></clipPath><clipPath
       id="clipPath146"
       clipPathUnits="userSpaceOnUse"><path
         style="clip-rule:evenodd"
         id="path144"
         d="M 9.715e-6,0 H 651.96001 V 396.84 H 9.715e-6 Z" /></clipPath><clipPath
       id="clipPath158"
       clipPathUnits="userSpaceOnUse"><path
         style="clip-rule:evenodd"
         id="path156"
         d="M 9.715e-6,0 H 651.96001 V 396.84 H 9.715e-6 Z" /></clipPath><clipPath
       id="clipPath170"
       clipPathUnits="userSpaceOnUse"><path
         style="clip-rule:evenodd"
         id="path168"
         d="M 9.715e-6,0 H 651.96001 V 396.84 H 9.715e-6 Z" /></clipPath><clipPath
       id="clipPath182"
       clipPathUnits="userSpaceOnUse"><path
         style="clip-rule:evenodd"
         id="path180"
         d="M 9.715e-6,0 H 651.96001 V 396.84 H 9.715e-6 Z" /></clipPath><clipPath
       id="clipPath194"
       clipPathUnits="userSpaceOnUse"><path
         style="clip-rule:evenodd"
         id="path192"
         d="M 9.715e-6,0 H 651.96001 V 396.84 H 9.715e-6 Z" /></clipPath><clipPath
       id="clipPath206"
       clipPathUnits="userSpaceOnUse"><path
         style="clip-rule:evenodd"
         id="path204"
         d="M 9.715e-6,0 H 651.96001 V 396.84 H 9.715e-6 Z" /></clipPath><clipPath
       id="clipPath218"
       clipPathUnits="userSpaceOnUse"><path
         style="clip-rule:evenodd"
         id="path216"
         d="M 9.715e-6,0 H 651.96001 V 396.84 H 9.715e-6 Z" /></clipPath><clipPath
       id="clipPath232"
       clipPathUnits="userSpaceOnUse"><path
         style="clip-rule:evenodd"
         id="path230"
         d="M 9.715e-6,0 H 651.96001 V 396.84 H 9.715e-6 Z" /></clipPath><clipPath
       id="clipPath244"
       clipPathUnits="userSpaceOnUse"><path
         style="clip-rule:evenodd"
         id="path242"
         d="M 9.715e-6,0 H 651.96001 V 396.84 H 9.715e-6 Z" /></clipPath><clipPath
       id="clipPath258"
       clipPathUnits="userSpaceOnUse"><path
         style="clip-rule:evenodd"
         id="path256"
         d="M 9.715e-6,0 H 651.96001 V 396.84 H 9.715e-6 Z" /></clipPath><clipPath
       id="clipPath270"
       clipPathUnits="userSpaceOnUse"><path
         style="clip-rule:evenodd"
         id="path268"
         d="M 9.715e-6,0 H 651.96001 V 396.84 H 9.715e-6 Z" /></clipPath><clipPath
       id="clipPath282"
       clipPathUnits="userSpaceOnUse"><path
         style="clip-rule:evenodd"
         id="path280"
         d="M 9.715e-6,0 H 651.96001 V 396.84 H 9.715e-6 Z" /></clipPath><clipPath
       id="clipPath294"
       clipPathUnits="userSpaceOnUse"><path
         style="clip-rule:evenodd"
         id="path292"
         d="M 9.715e-6,0 H 651.96001 V 396.84 H 9.715e-6 Z" /></clipPath><clipPath
       id="clipPath306"
       clipPathUnits="userSpaceOnUse"><path
         style="clip-rule:evenodd"
         id="path304"
         d="M 9.715e-6,0 H 651.96001 V 396.84 H 9.715e-6 Z" /></clipPath><clipPath
       id="clipPath318"
       clipPathUnits="userSpaceOnUse"><path
         style="clip-rule:evenodd"
         id="path316"
         d="M 9.715e-6,0 H 651.96001 V 396.84 H 9.715e-6 Z" /></clipPath><clipPath
       id="clipPath330"
       clipPathUnits="userSpaceOnUse"><path
         style="clip-rule:evenodd"
         id="path328"
         d="M 9.715e-6,0 H 651.96001 V 396.84 H 9.715e-6 Z" /></clipPath></defs><g
     transform="matrix(1.3333333,0,0,-1.3333333,0,529.12)"
     id="g10"><g
       id="g12"><g
         clip-path="url(#clipPath18)"
         id="g14"><path
           id="path20"
           style="fill:#ffffff;fill-opacity:1;fill-rule:evenodd;stroke:none"
           d="M 0,3.0518e-5 H 651.96 V 396.84003 H 0 Z" /></g></g><g
       id="g22"><g
         clip-path="url(#clipPath28)"
         id="g24"><text
           id="text32"
           style="font-variant:normal;font-weight:bold;font-size:44.06399918px;font-family:Calibri;-inkscape-font-specification:Calibri-Bold;writing-mode:lr-tb;fill:#000000;fill-opacity:1;fill-rule:nonzero;stroke:none"
           transform="matrix(1,0,0,-1,307.08,221.93)"><tspan
             id="tspan30"
             y="0"
             x="0">–</tspan></text>
</g></g><g
       id="g34"><g
         clip-path="url(#clipPath40)"
         id="g36"><text
           id="text44"
           style="font-variant:normal;font-weight:normal;font-size:18px;font-family:Calibri;-inkscape-font-specification:Calibri;writing-mode:lr-tb;fill:#000000;fill-opacity:1;fill-rule:nonzero;stroke:none"
           transform="matrix(1,0,0,-1,402.5,341.26)"><tspan
             id="tspan42"
             y="0"
             x="0 9.7740002 18.486 26.747999 35.532001 45.251999 54.035999 65.664001 75.258003">REFERENCE</tspan></text>
</g></g><g
       id="g46"><g
         clip-path="url(#clipPath52)"
         id="g48"><text
           id="text56"
           style="font-variant:normal;font-weight:normal;font-size:18px;font-family:Calibri;-inkscape-font-specification:Calibri;writing-mode:lr-tb;fill:#000000;fill-opacity:1;fill-rule:nonzero;stroke:none"
           transform="matrix(1,0,0,-1,125.06,340.87)"><tspan
             id="tspan54"
             y="0"
             x="0 8.1540003 16.92 28.476 39.473999 44.009998 52.793999 63.863998 68.022003 78.335999 88.038002 96.804001 101.34 111.546 116.082 124.848">STUDIED ACTIVITY</tspan></text>
</g></g><path
       id="path58"
       style="fill:#70ad47;fill-opacity:1;fill-rule:evenodd;stroke:none"
       d="m 99.96,164.88 c 0,26.71 40.89,48.36 91.32,48.36 50.43,0 91.32,-21.65 91.32,-48.36 0,-26.71 -40.89,-48.36 -91.32,-48.36 -50.43,0 -91.32,21.65 -91.32,48.36 z" /><path
       id="path60"
       style="fill:none;stroke:#41719c;stroke-width:0.95999998;stroke-linecap:butt;stroke-linejoin:miter;stroke-miterlimit:10;stroke-dasharray:none;stroke-opacity:1"
       d="m 99.96,164.88 c 0,26.71 40.89,48.36 91.32,48.36 50.43,0 91.32,-21.65 91.32,-48.36 0,-26.71 -40.89,-48.36 -91.32,-48.36 -50.43,0 -91.32,21.65 -91.32,48.36 z" /><g
       id="g62"><g
         clip-path="url(#clipPath68)"
         id="g64"><text
           id="text72"
           style="font-variant:normal;font-weight:normal;font-size:18px;font-family:Calibri;-inkscape-font-specification:Calibri;writing-mode:lr-tb;fill:#ffffff;fill-opacity:1;fill-rule:nonzero;stroke:none"
           transform="matrix(1,0,0,-1,151.22,169.58)"><tspan
             id="tspan70"
             y="0"
             x="0 9.7919998 13.932 23.417999 37.799999 46.422001 53.495998 60.534 64.421997 73.907997 80.190002">Biomass or </tspan></text>
</g></g><g
       id="g74"><g
         clip-path="url(#clipPath80)"
         id="g76"><text
           id="text84"
           style="font-variant:normal;font-weight:normal;font-size:18px;font-family:Calibri;-inkscape-font-specification:Calibri;writing-mode:lr-tb;fill:#ffffff;fill-opacity:1;fill-rule:nonzero;stroke:none"
           transform="matrix(1,0,0,-1,175.46,147.96)"><tspan
             id="tspan82"
             y="0"
             x="0 4.086 12.708 22.158001 31.662001">land </tspan></text>
</g></g><path
       id="path86"
       style="fill:#70ad47;fill-opacity:1;fill-rule:evenodd;stroke:none"
       d="m 354.84,161.04 c 0,26.71 40.89,48.36 91.32,48.36 50.43,0 91.32,-21.65 91.32,-48.36 0,-26.71 -40.89,-48.36 -91.32,-48.36 -50.43,0 -91.32,21.65 -91.32,48.36 z" /><path
       id="path88"
       style="fill:none;stroke:#41719c;stroke-width:0.95999998;stroke-linecap:butt;stroke-linejoin:miter;stroke-miterlimit:10;stroke-dasharray:none;stroke-opacity:1"
       d="m 354.84,161.04 c 0,26.71 40.89,48.36 91.32,48.36 50.43,0 91.32,-21.65 91.32,-48.36 0,-26.71 -40.89,-48.36 -91.32,-48.36 -50.43,0 -91.32,21.65 -91.32,48.36 z" /><g
       id="g90"><g
         clip-path="url(#clipPath96)"
         id="g92"><text
           id="text100"
           style="font-variant:normal;font-weight:normal;font-size:18px;font-family:Calibri;-inkscape-font-specification:Calibri;writing-mode:lr-tb;fill:#ffffff;fill-opacity:1;fill-rule:nonzero;stroke:none"
           transform="matrix(1,0,0,-1,406.15,165.82)"><tspan
             id="tspan98"
             y="0"
             x="0 9.7919998 13.932 23.417999 37.799999 46.422001 53.495998 60.534 64.421997 73.907997 80.190002">Biomass or </tspan></text>
</g></g><g
       id="g102"><g
         clip-path="url(#clipPath108)"
         id="g104"><text
           id="text112"
           style="font-variant:normal;font-weight:normal;font-size:18.02400017px;font-family:Calibri;-inkscape-font-specification:Calibri;writing-mode:lr-tb;fill:#ffffff;fill-opacity:1;fill-rule:nonzero;stroke:none"
           transform="matrix(1,0,0,-1,430.42,144.22)"><tspan
             id="tspan110"
             y="0"
             x="0 4.0734239 12.70692 22.169519 31.63212">land </tspan></text>
</g></g><g
       id="g114"><g
         clip-path="url(#clipPath120)"
         id="g116"><text
           id="text124"
           style="font-variant:normal;font-weight:normal;font-size:18px;font-family:Calibri;-inkscape-font-specification:Calibri;writing-mode:lr-tb;fill:#000000;fill-opacity:1;fill-rule:nonzero;stroke:none"
           transform="matrix(1,0,0,-1,96.6,86.4)"><tspan
             id="tspan122"
             y="0"
             x="0 11.16 20.610001 34.992001 43.667999 53.118 60.209999 64.278 73.727997 80.837997 89.802002 93.870003 99.900002 109.35 118.386 122.562 126.648 135.27 144.72 154.224 158.39999 167.886 174.168">Humans use the land or </tspan></text>
</g></g><g
       id="g126"><g
         clip-path="url(#clipPath132)"
         id="g128"><text
           id="text136"
           style="font-variant:normal;font-weight:normal;font-size:18px;font-family:Calibri;-inkscape-font-specification:Calibri;writing-mode:lr-tb;fill:#000000;fill-opacity:1;fill-rule:nonzero;stroke:none"
           transform="matrix(1,0,0,-1,96.6,64.8)"><tspan
             id="tspan134"
             y="0"
             x="0 9.4499998 13.59 23.076 37.458 46.080002 53.118 60.228001 64.188004 69.353996 78.839996 85.122002 89.262001 97.884003 107.334 111.438 120.06 129.50999 139.01401 143.10001 147.186 154.62 163.134 169.164 173.214 182.7">biomass for an application</tspan></text>
</g></g><path
       id="path138"
       style="fill:#ff0000;fill-opacity:1;fill-rule:nonzero;stroke:none"
       d="m 124.8,195.98 v 91.3 h -6 v -91.3 z m 6,88.3 -9,18 -9,-18 z" /><g
       id="g140"><g
         clip-path="url(#clipPath146)"
         id="g142"><text
           id="text150"
           style="font-variant:normal;font-weight:normal;font-size:18px;font-family:Calibri;-inkscape-font-specification:Calibri;writing-mode:lr-tb;fill:#000000;fill-opacity:1;fill-rule:nonzero;stroke:none"
           transform="matrix(1,0,0,-1,135.12,305.11)"><tspan
             id="tspan148"
             y="0"
             x="0 9.4799995">CO</tspan></text>
</g></g><g
       id="g152"><g
         clip-path="url(#clipPath158)"
         id="g154"><text
           id="text162"
           style="font-variant:normal;font-weight:normal;font-size:12px;font-family:Calibri;-inkscape-font-specification:Calibri;writing-mode:lr-tb;fill:#000000;fill-opacity:1;fill-rule:nonzero;stroke:none"
           transform="matrix(1,0,0,-1,156.48,300.67)"><tspan
             id="tspan160"
             y="0"
             x="0">2</tspan></text>
</g></g><g
       id="g164"><g
         clip-path="url(#clipPath170)"
         id="g166"><text
           id="text174"
           style="font-variant:normal;font-weight:normal;font-size:18px;font-family:Calibri;-inkscape-font-specification:Calibri;writing-mode:lr-tb;fill:#000000;fill-opacity:1;fill-rule:nonzero;stroke:none"
           transform="matrix(1,0,0,-1,162.6,305.11)"><tspan
             id="tspan172"
             y="0"
             x="0 4.4460001 8.6219997 18.216">, CH</tspan></text>
</g></g><g
       id="g176"><g
         clip-path="url(#clipPath182)"
         id="g178"><text
           id="text186"
           style="font-variant:normal;font-weight:normal;font-size:12px;font-family:Calibri;-inkscape-font-specification:Calibri;writing-mode:lr-tb;fill:#000000;fill-opacity:1;fill-rule:nonzero;stroke:none"
           transform="matrix(1,0,0,-1,192,300.67)"><tspan
             id="tspan184"
             y="0"
             x="0 6.1199999">4,</tspan></text>
</g></g><g
       id="g188"><g
         clip-path="url(#clipPath194)"
         id="g190"><text
           id="text198"
           style="font-variant:normal;font-weight:normal;font-size:18px;font-family:Calibri;-inkscape-font-specification:Calibri;writing-mode:lr-tb;fill:#000000;fill-opacity:1;fill-rule:nonzero;stroke:none"
           transform="matrix(1,0,0,-1,205.32,305.11)"><tspan
             id="tspan196"
             y="0"
             x="0">N</tspan></text>
</g></g><g
       id="g200"><g
         clip-path="url(#clipPath206)"
         id="g202"><text
           id="text210"
           style="font-variant:normal;font-weight:normal;font-size:12px;font-family:Calibri;-inkscape-font-specification:Calibri;writing-mode:lr-tb;fill:#000000;fill-opacity:1;fill-rule:nonzero;stroke:none"
           transform="matrix(1,0,0,-1,216.96,300.67)"><tspan
             id="tspan208"
             y="0"
             x="0">2</tspan></text>
</g></g><g
       id="g212"><g
         clip-path="url(#clipPath218)"
         id="g214"><text
           id="text222"
           style="font-variant:normal;font-weight:normal;font-size:18px;font-family:Calibri;-inkscape-font-specification:Calibri;writing-mode:lr-tb;fill:#000000;fill-opacity:1;fill-rule:nonzero;stroke:none"
           transform="matrix(1,0,0,-1,223.08,305.11)"><tspan
             id="tspan220"
             y="0"
             x="0">O</tspan></text>
</g></g><path
       id="path224"
       style="fill:#4472c4;fill-opacity:1;fill-rule:nonzero;stroke:none"
       d="m 249.48,210.98 v 91.3 h -6 v -91.3 z m -12,3 9,-18 9,18 z" /><g
       id="g226"><g
         clip-path="url(#clipPath232)"
         id="g228"><text
           id="text236"
           style="font-variant:normal;font-weight:normal;font-size:18px;font-family:Calibri;-inkscape-font-specification:Calibri;writing-mode:lr-tb;fill:#000000;fill-opacity:1;fill-rule:nonzero;stroke:none"
           transform="matrix(1,0,0,-1,357.82,84.312)"><tspan
             id="tspan234"
             y="0"
             x="0 7.5599999 16.181999 25.632 35.136002 39.312 48.798 55.080002 59.220001 68.669998 72.809998 82.295998 96.678001 105.3 112.338 119.448 123.408 132.858 142.34399 148.37399">Land or biomass not </tspan></text>
</g></g><g
       id="g238"><g
         clip-path="url(#clipPath244)"
         id="g240"><text
           id="text248"
           style="font-variant:normal;font-weight:normal;font-size:18px;font-family:Calibri;-inkscape-font-specification:Calibri;writing-mode:lr-tb;fill:#000000;fill-opacity:1;fill-rule:nonzero;stroke:none"
           transform="matrix(1,0,0,-1,357.82,62.712)"><tspan
             id="tspan246"
             y="0"
             x="0 9.4499998 16.542 25.506001 35.009998 39.077999 48.563999 54.846001 58.986 68.435997 75.528 84.491997 93.996002 98.064003 107.514 111.654 117.036 122.076 131.03999 137.07001 146.034 155.42999 161.46001 165.50999">used or used differently</tspan></text>
</g></g><path
       id="path250"
       style="fill:#ff0000;fill-opacity:1;fill-rule:nonzero;stroke:none"
       d="m 384.6,194.06 v 91.3 h -6 v -91.3 z m 6,88.3 -9,18 -9,-18 z" /><g
       id="g252"><g
         clip-path="url(#clipPath258)"
         id="g254"><text
           id="text262"
           style="font-variant:normal;font-weight:normal;font-size:18px;font-family:Calibri;-inkscape-font-specification:Calibri;writing-mode:lr-tb;fill:#000000;fill-opacity:1;fill-rule:nonzero;stroke:none"
           transform="matrix(1,0,0,-1,394.99,303.22)"><tspan
             id="tspan260"
             y="0"
             x="0 9.4799995">CO</tspan></text>
</g></g><g
       id="g264"><g
         clip-path="url(#clipPath270)"
         id="g266"><text
           id="text274"
           style="font-variant:normal;font-weight:normal;font-size:12px;font-family:Calibri;-inkscape-font-specification:Calibri;writing-mode:lr-tb;fill:#000000;fill-opacity:1;fill-rule:nonzero;stroke:none"
           transform="matrix(1,0,0,-1,416.35,298.78)"><tspan
             id="tspan272"
             y="0"
             x="0">2</tspan></text>
</g></g><g
       id="g276"><g
         clip-path="url(#clipPath282)"
         id="g278"><text
           id="text286"
           style="font-variant:normal;font-weight:normal;font-size:18px;font-family:Calibri;-inkscape-font-specification:Calibri;writing-mode:lr-tb;fill:#000000;fill-opacity:1;fill-rule:nonzero;stroke:none"
           transform="matrix(1,0,0,-1,422.47,303.22)"><tspan
             id="tspan284"
             y="0"
             x="0 4.4460001 8.6219997 18.216">, CH</tspan></text>
</g></g><g
       id="g288"><g
         clip-path="url(#clipPath294)"
         id="g290"><text
           id="text298"
           style="font-variant:normal;font-weight:normal;font-size:12px;font-family:Calibri;-inkscape-font-specification:Calibri;writing-mode:lr-tb;fill:#000000;fill-opacity:1;fill-rule:nonzero;stroke:none"
           transform="matrix(1,0,0,-1,451.9,298.78)"><tspan
             id="tspan296"
             y="0"
             x="0 6.1199999">4,</tspan></text>
</g></g><g
       id="g300"><g
         clip-path="url(#clipPath306)"
         id="g302"><text
           id="text310"
           style="font-variant:normal;font-weight:normal;font-size:18px;font-family:Calibri;-inkscape-font-specification:Calibri;writing-mode:lr-tb;fill:#000000;fill-opacity:1;fill-rule:nonzero;stroke:none"
           transform="matrix(1,0,0,-1,465.22,303.22)"><tspan
             id="tspan308"
             y="0"
             x="0">N</tspan></text>
</g></g><g
       id="g312"><g
         clip-path="url(#clipPath318)"
         id="g314"><text
           id="text322"
           style="font-variant:normal;font-weight:normal;font-size:12px;font-family:Calibri;-inkscape-font-specification:Calibri;writing-mode:lr-tb;fill:#000000;fill-opacity:1;fill-rule:nonzero;stroke:none"
           transform="matrix(1,0,0,-1,476.86,298.78)"><tspan
             id="tspan320"
             y="0"
             x="0">2</tspan></text>
</g></g><g
       id="g324"><g
         clip-path="url(#clipPath330)"
         id="g326"><text
           id="text334"
           style="font-variant:normal;font-weight:normal;font-size:18px;font-family:Calibri;-inkscape-font-specification:Calibri;writing-mode:lr-tb;fill:#000000;fill-opacity:1;fill-rule:nonzero;stroke:none"
           transform="matrix(1,0,0,-1,482.98,303.22)"><tspan
             id="tspan332"
             y="0"
             x="0">O</tspan></text>
</g></g><path
       id="path336"
       style="fill:#4472c4;fill-opacity:1;fill-rule:nonzero;stroke:none"
       d="m 509.28,209.06 v 91.3 h -6 v -91.3 z m -12,3 9,-18 9,18 z" /><g
       id="g338"><path
         id="path340"
         style="fill:none;stroke:#41719c;stroke-width:0.95999998;stroke-linecap:butt;stroke-linejoin:miter;stroke-miterlimit:10;stroke-dasharray:3.84, 2.88;stroke-dashoffset:0;stroke-opacity:1"
         d="m 98.04,103.44 h 187.68 v 229.2 H 98.04 Z" /></g><g
       id="g342"><path
         id="path344"
         style="fill:none;stroke:#41719c;stroke-width:0.95999998;stroke-linecap:butt;stroke-linejoin:miter;stroke-miterlimit:10;stroke-dasharray:3.84, 2.88;stroke-dashoffset:0;stroke-opacity:1"
         d="m 352.2,103.32 h 187.68 v 229.2 H 352.2 Z" /></g></g></svg>