<?xml version="1.0" encoding="UTF-8" standalone="no"?>
<svg
   xmlns:dc="http://purl.org/dc/elements/1.1/"
   xmlns:cc="http://creativecommons.org/ns#"
   xmlns:rdf="http://www.w3.org/1999/02/22-rdf-syntax-ns#"
   xmlns:svg="http://www.w3.org/2000/svg"
   xmlns="http://www.w3.org/2000/svg"
   viewBox="0 0 869.28003 529.12"
   height="529.12"
   width="869.28003"
   xml:space="preserve"
   id="svg2"
   version="1.1"><metadata
     id="metadata8"><rdf:RDF><cc:Work
         rdf:about=""><dc:format>image/svg+xml</dc:format><dc:type
           rdf:resource="http://purl.org/dc/dcmitype/StillImage" /></cc:Work></rdf:RDF></metadata><defs
     id="defs6"><clipPath
       id="clipPath18"
       clipPathUnits="userSpaceOnUse"><path
         style="clip-rule:evenodd"
         id="path16"
         d="M 0,9.1553e-5 H 651.96 V 396.84009 H 0 Z" /></clipPath><clipPath
       id="clipPath32"
       clipPathUnits="userSpaceOnUse"><path
         style="clip-rule:evenodd"
         id="path30"
         d="M 9.715e-6,0 H 651.96001 V 396.84 H 9.715e-6 Z" /></clipPath><clipPath
       id="clipPath44"
       clipPathUnits="userSpaceOnUse"><path
         style="clip-rule:evenodd"
         id="path42"
         d="M 9.715e-6,0 H 651.96001 V 396.84 H 9.715e-6 Z" /></clipPath><clipPath
       id="clipPath56"
       clipPathUnits="userSpaceOnUse"><path
         style="clip-rule:evenodd"
         id="path54"
         d="M 9.715e-6,0 H 651.96001 V 396.84 H 9.715e-6 Z" /></clipPath><clipPath
       id="clipPath68"
       clipPathUnits="userSpaceOnUse"><path
         style="clip-rule:evenodd"
         id="path66"
         d="M 9.715e-6,0 H 651.96001 V 396.84 H 9.715e-6 Z" /></clipPath><clipPath
       id="clipPath84"
       clipPathUnits="userSpaceOnUse"><path
         style="clip-rule:evenodd"
         id="path82"
         d="M 9.715e-6,0 H 651.96001 V 396.84 H 9.715e-6 Z" /></clipPath><clipPath
       id="clipPath96"
       clipPathUnits="userSpaceOnUse"><path
         style="clip-rule:evenodd"
         id="path94"
         d="M 9.715e-6,0 H 651.96001 V 396.84 H 9.715e-6 Z" /></clipPath><clipPath
       id="clipPath108"
       clipPathUnits="userSpaceOnUse"><path
         style="clip-rule:evenodd"
         id="path106"
         d="M 9.715e-6,0 H 651.96001 V 396.84 H 9.715e-6 Z" /></clipPath><clipPath
       id="clipPath120"
       clipPathUnits="userSpaceOnUse"><path
         style="clip-rule:evenodd"
         id="path118"
         d="M 9.715e-6,0 H 651.96001 V 396.84 H 9.715e-6 Z" /></clipPath><clipPath
       id="clipPath134"
       clipPathUnits="userSpaceOnUse"><path
         style="clip-rule:evenodd"
         id="path132"
         d="M 9.715e-6,0 H 651.96001 V 396.84 H 9.715e-6 Z" /></clipPath><clipPath
       id="clipPath146"
       clipPathUnits="userSpaceOnUse"><path
         style="clip-rule:evenodd"
         id="path144"
         d="M 9.715e-6,0 H 651.96001 V 396.84 H 9.715e-6 Z" /></clipPath><clipPath
       id="clipPath166"
       clipPathUnits="userSpaceOnUse"><path
         style="clip-rule:evenodd"
         id="path164"
         d="M 9.715e-6,0 H 651.96001 V 396.84 H 9.715e-6 Z" /></clipPath><clipPath
       id="clipPath178"
       clipPathUnits="userSpaceOnUse"><path
         style="clip-rule:evenodd"
         id="path176"
         d="M 9.715e-6,0 H 651.96001 V 396.84 H 9.715e-6 Z" /></clipPath><clipPath
       id="clipPath190"
       clipPathUnits="userSpaceOnUse"><path
         style="clip-rule:evenodd"
         id="path188"
         d="M 9.715e-6,0 H 651.96001 V 396.84 H 9.715e-6 Z" /></clipPath></defs><g
     transform="matrix(1.3333333,0,0,-1.3333333,0,529.12)"
     id="g10"><g
       id="g12"><g
         clip-path="url(#clipPath18)"
         id="g14"><path
           id="path20"
           style="fill:#ffffff;fill-opacity:1;fill-rule:evenodd;stroke:none"
           d="M 0,3.0518e-5 H 651.96 V 396.84003 H 0 Z" /></g></g><path
       id="path22"
       style="fill:#000000;fill-opacity:1;fill-rule:evenodd;stroke:none"
       d="m 99.96,159.6 c 0,26.71 40.89,48.36 91.32,48.36 50.43,0 91.32,-21.65 91.32,-48.36 0,-26.71 -40.89,-48.36 -91.32,-48.36 -50.43,0 -91.32,21.65 -91.32,48.36 z" /><path
       id="path24"
       style="fill:none;stroke:#41719c;stroke-width:0.95999998;stroke-linecap:butt;stroke-linejoin:miter;stroke-miterlimit:10;stroke-dasharray:none;stroke-opacity:1"
       d="m 99.96,159.6 c 0,26.71 40.89,48.36 91.32,48.36 50.43,0 91.32,-21.65 91.32,-48.36 0,-26.71 -40.89,-48.36 -91.32,-48.36 -50.43,0 -91.32,21.65 -91.32,48.36 z" /><g
       id="g26"><g
         clip-path="url(#clipPath32)"
         id="g28"><text
           id="text36"
           style="font-variant:normal;font-weight:normal;font-size:24px;font-family:Calibri;-inkscape-font-specification:Calibri;writing-mode:lr-tb;fill:#ffffff;fill-opacity:1;fill-rule:nonzero;stroke:none"
           transform="matrix(1,0,0,-1,143.3,165.84)"><tspan
             id="tspan34"
             y="0"
             x="0 10.68 23.327999 32.639999 42.023998 47.543999 53.063999 58.487999 65.807999 78.407997 90.360001 95.879997">Fossil fuel </tspan></text>
</g></g><g
       id="g38"><g
         clip-path="url(#clipPath44)"
         id="g40"><text
           id="text48"
           style="font-variant:normal;font-weight:normal;font-size:24.02400017px;font-family:Calibri;-inkscape-font-specification:Calibri;writing-mode:lr-tb;fill:#ffffff;fill-opacity:1;fill-rule:nonzero;stroke:none"
           transform="matrix(1,0,0,-1,144.62,137.04)"><tspan
             id="tspan46"
             y="0"
             x="0 5.5255198 18.138121 23.567545 34.810776 42.858814 55.519463 68.05999 80.672592">in ground</tspan></text>
</g></g><g
       id="g50"><g
         clip-path="url(#clipPath56)"
         id="g52"><text
           id="text60"
           style="font-variant:normal;font-weight:normal;font-size:18.02400017px;font-family:Calibri;-inkscape-font-specification:Calibri;writing-mode:lr-tb;fill:#000000;fill-opacity:1;fill-rule:nonzero;stroke:none"
           transform="matrix(1,0,0,-1,357.82,81.12)"><tspan
             id="tspan58"
             y="0"
             x="0 8.0387039 17.537352 24.584736 31.63212 35.777641 39.833038 43.906464 49.403786 58.866383 67.896408 71.969833 76.043259 85.505859 95.004501 101.04254 105.18806 114.65067 121.69805 130.72807 140.19067 144.2641 153.6546 161.81947">Fossil fuel not used by </tspan></text>
</g></g><g
       id="g62"><g
         clip-path="url(#clipPath68)"
         id="g64"><text
           id="text72"
           style="font-variant:normal;font-weight:normal;font-size:18px;font-family:Calibri;-inkscape-font-specification:Calibri;writing-mode:lr-tb;fill:#000000;fill-opacity:1;fill-rule:nonzero;stroke:none"
           transform="matrix(1,0,0,-1,357.82,59.496)"><tspan
             id="tspan70"
             y="0"
             x="0 9.4499998 18.936001 33.318001 41.939999 51.444 58.481998 62.585999 71.208 80.657997 90.162003 94.230003 101.088 106.848 115.128 123.174 130.21201 134.20799 138.29401 147.744 151.95599 160.43401 166.48199 175.968 185.418 194.868">humans and stays in ground</tspan></text>
</g></g><path
       id="path74"
       style="fill:#000000;fill-opacity:1;fill-rule:evenodd;stroke:none"
       d="m 354.36,157.8 c 0,26.71 40.89,48.36 91.32,48.36 50.43,0 91.32,-21.65 91.32,-48.36 0,-26.71 -40.89,-48.36 -91.32,-48.36 -50.43,0 -91.32,21.65 -91.32,48.36 z" /><path
       id="path76"
       style="fill:none;stroke:#41719c;stroke-width:0.95999998;stroke-linecap:butt;stroke-linejoin:miter;stroke-miterlimit:10;stroke-dasharray:none;stroke-opacity:1"
       d="m 354.36,157.8 c 0,26.71 40.89,48.36 91.32,48.36 50.43,0 91.32,-21.65 91.32,-48.36 0,-26.71 -40.89,-48.36 -91.32,-48.36 -50.43,0 -91.32,21.65 -91.32,48.36 z" /><g
       id="g78"><g
         clip-path="url(#clipPath84)"
         id="g80"><text
           id="text88"
           style="font-variant:normal;font-weight:normal;font-size:24.02400017px;font-family:Calibri;-inkscape-font-specification:Calibri;writing-mode:lr-tb;fill:#ffffff;fill-opacity:1;fill-rule:nonzero;stroke:none"
           transform="matrix(1,0,0,-1,397.75,164.09)"><tspan
             id="tspan86"
             y="0"
             x="0 10.69068 23.351328 32.648617 42.042 47.56752 53.09304 58.450394 65.77771 78.390312 90.354263 95.879784">Fossil fuel </tspan></text>
</g></g><g
       id="g90"><g
         clip-path="url(#clipPath96)"
         id="g92"><text
           id="text100"
           style="font-variant:normal;font-weight:normal;font-size:24px;font-family:Calibri;-inkscape-font-specification:Calibri;writing-mode:lr-tb;fill:#ffffff;fill-opacity:1;fill-rule:nonzero;stroke:none"
           transform="matrix(1,0,0,-1,399.07,135.26)"><tspan
             id="tspan98"
             y="0"
             x="0 5.52 18.120001 23.544001 34.848 42.84 55.487999 68.087997 80.688004">in ground</tspan></text>
</g></g><g
       id="g102"><g
         clip-path="url(#clipPath108)"
         id="g104"><text
           id="text112"
           style="font-variant:normal;font-weight:normal;font-size:18.02400017px;font-family:Calibri;-inkscape-font-specification:Calibri;writing-mode:lr-tb;fill:#000000;fill-opacity:1;fill-rule:nonzero;stroke:none"
           transform="matrix(1,0,0,-1,105.22,81.12)"><tspan
             id="tspan110"
             y="0"
             x="0 11.156856 20.619455 35.020634 43.654129 53.11673 60.218185 64.291611 73.05127 80.855667 86.893707 92.733482 101.36697 108.93706 114.9751 119.12061 127.75411 137.21671 146.67931 150.89693 160.35953 169.82213 176.1125 185.5751">Humans extract and burn </tspan></text>
</g></g><g
       id="g114"><g
         clip-path="url(#clipPath120)"
         id="g116"><text
           id="text124"
           style="font-variant:normal;font-weight:normal;font-size:18px;font-family:Calibri;-inkscape-font-specification:Calibri;writing-mode:lr-tb;fill:#000000;fill-opacity:1;fill-rule:nonzero;stroke:none"
           transform="matrix(1,0,0,-1,105.22,59.496)"><tspan
             id="tspan122"
             y="0"
             x="0 5.1659999 14.652 21.690001 28.782 32.868 36.953999 41.021999 46.512001 56.015999 64.980003 69.120003 73.188004 78.335999 87.821999 94.103996 98.244003 107.208 116.712 125.676 131.70599 140.18401">fossil fuel for energy</tspan></text>
</g></g><path
       id="path126"
       style="fill:#ff0000;fill-opacity:1;fill-rule:nonzero;stroke:none"
       d="M 126.36,190.7 V 282 h -6 v -91.3 z m 6,88.3 -9,18 -9,-18 z" /><g
       id="g128"><g
         clip-path="url(#clipPath134)"
         id="g130"><text
           id="text138"
           style="font-variant:normal;font-weight:normal;font-size:18px;font-family:Calibri;-inkscape-font-specification:Calibri;writing-mode:lr-tb;fill:#000000;fill-opacity:1;fill-rule:nonzero;stroke:none"
           transform="matrix(1,0,0,-1,132.94,291.05)"><tspan
             id="tspan136"
             y="0"
             x="0 9.4799995">CO</tspan></text>
</g></g><g
       id="g140"><g
         clip-path="url(#clipPath146)"
         id="g142"><text
           id="text150"
           style="font-variant:normal;font-weight:normal;font-size:12px;font-family:Calibri;-inkscape-font-specification:Calibri;writing-mode:lr-tb;fill:#000000;fill-opacity:1;fill-rule:nonzero;stroke:none"
           transform="matrix(1,0,0,-1,154.3,286.61)"><tspan
             id="tspan148"
             y="0"
             x="0">2</tspan></text>
</g></g><g
       id="g152"><path
         id="path154"
         style="fill:none;stroke:#41719c;stroke-width:0.95999998;stroke-linecap:butt;stroke-linejoin:miter;stroke-miterlimit:10;stroke-dasharray:3.84, 2.88;stroke-dashoffset:0;stroke-opacity:1"
         d="m 98.04,103.44 h 187.68 v 229.2 H 98.04 Z" /></g><g
       id="g156"><path
         id="path158"
         style="fill:none;stroke:#41719c;stroke-width:0.95999998;stroke-linecap:butt;stroke-linejoin:miter;stroke-miterlimit:10;stroke-dasharray:3.84, 2.88;stroke-dashoffset:0;stroke-opacity:1"
         d="M 350.52,103.44 H 538.2 v 229.2 H 350.52 Z" /></g><g
       id="g160"><g
         clip-path="url(#clipPath166)"
         id="g162"><text
           id="text170"
           style="font-variant:normal;font-weight:bold;font-size:44.06399918px;font-family:Calibri;-inkscape-font-specification:Calibri-Bold;writing-mode:lr-tb;fill:#000000;fill-opacity:1;fill-rule:nonzero;stroke:none"
           transform="matrix(1,0,0,-1,307.08,221.93)"><tspan
             id="tspan168"
             y="0"
             x="0">–</tspan></text>
</g></g><g
       id="g172"><g
         clip-path="url(#clipPath178)"
         id="g174"><text
           id="text182"
           style="font-variant:normal;font-weight:normal;font-size:18px;font-family:Calibri;-inkscape-font-specification:Calibri;writing-mode:lr-tb;fill:#000000;fill-opacity:1;fill-rule:nonzero;stroke:none"
           transform="matrix(1,0,0,-1,402.5,341.26)"><tspan
             id="tspan180"
             y="0"
             x="0 9.7740002 18.486 26.747999 35.532001 45.251999 54.035999 65.664001 75.258003">REFERENCE</tspan></text>
</g></g><g
       id="g184"><g
         clip-path="url(#clipPath190)"
         id="g186"><text
           id="text194"
           style="font-variant:normal;font-weight:normal;font-size:18px;font-family:Calibri;-inkscape-font-specification:Calibri;writing-mode:lr-tb;fill:#000000;fill-opacity:1;fill-rule:nonzero;stroke:none"
           transform="matrix(1,0,0,-1,125.06,340.87)"><tspan
             id="tspan192"
             y="0"
             x="0 8.1540003 16.92 28.476 39.473999 44.009998 52.793999 63.863998 68.022003 78.335999 88.038002 96.804001 101.34 111.546 116.082 124.848">STUDIED ACTIVITY</tspan></text>
</g></g></g></svg>